<?xml version="1.0" encoding="UTF-8"?>
<svg id="Layer_1" data-name="Layer 1" xmlns="http://www.w3.org/2000/svg" version="1.1" viewBox="0 0 1920 548">
  <defs>
    <style>
      .cls-1, .cls-2, .cls-3 {
        stroke-width: 0px;
      }

      .cls-1, .cls-3 {
        fill: #4bde80;
      }

      .cls-2 {
        fill: #00b157;
      }

      .cls-3 {
        fill-rule: evenodd;
      }
    </style>
  </defs>
  <g>
    <path class="cls-2" d="M619.79,201.32v339.11h-77.08l-.1-228.94-30.69,228.94h-54.67l-32.36-223.7-.1,223.7h-77.08V201.32h114.1c3.38,20.39,6.87,44.42,10.47,72.09l12.52,86.26,20.27-158.35h114.73Z"/>
    <path class="cls-2" d="M807.62,201.32l50.43,339.11h-90.12l-4.73-60.95h-31.54l-5.3,60.95h-91.17l44.98-339.11h127.46ZM760.88,419.37c-4.46-38.41-8.94-85.88-13.43-142.43-8.99,64.94-14.63,112.41-16.92,142.43h30.35Z"/>
    <path class="cls-2" d="M1026.98,201.32v67.86h-52.37v271.25h-88.18v-271.25h-52.15v-67.86h192.7Z"/>
    <path class="cls-1" d="M1233.92,303.96h-81.9v-25.14c0-11.73-1.05-19.2-3.14-22.41-2.09-3.21-5.59-4.82-10.47-4.82-5.31,0-9.32,2.17-12.04,6.5-2.72,4.33-4.08,10.9-4.08,19.7,0,11.32,1.53,19.84,4.59,25.57,2.92,5.73,11.23,12.64,24.92,20.73,39.25,23.3,63.98,42.42,74.17,57.36,10.19,14.94,15.29,39.03,15.29,72.26,0,24.16-2.83,41.96-8.48,53.41-5.65,11.45-16.58,21.05-32.78,28.8-16.2,7.75-35.05,11.63-56.55,11.63-23.6,0-43.74-4.47-60.43-13.41-16.69-8.93-27.61-20.32-32.78-34.14-5.17-13.82-7.75-33.44-7.75-58.86v-22.2h81.9v41.26c0,12.71,1.15,20.88,3.46,24.51,2.3,3.63,6.39,5.45,12.25,5.45s10.23-2.3,13.09-6.91c2.86-4.61,4.29-11.45,4.29-20.53,0-19.97-2.72-33.02-8.17-39.17-5.59-6.14-19.34-16.41-41.26-30.79-21.92-14.52-36.44-25.06-43.57-31.63-7.12-6.56-13.02-15.64-17.7-27.23-4.68-11.59-7.02-26.39-7.02-44.41,0-25.97,3.32-44.96,9.95-56.97,6.63-12.01,17.35-21.4,32.15-28.17,14.8-6.77,32.67-10.16,53.62-10.16,22.9,0,42.42,3.7,58.55,11.1,16.13,7.4,26.81,16.72,32.05,27.96,5.24,11.24,7.85,30.34,7.85,57.29v13.41Z"/>
    <path class="cls-1" d="M1479.09,201.32l-50.58,153.11,55.4,186h-91.12l-35.71-145.36v145.36h-88.18V201.32h88.18v131.75l39.28-131.75h82.74Z"/>
    <path class="cls-1" d="M1660.12,201.32l50.43,339.11h-90.12l-4.73-60.95h-31.54l-5.3,60.95h-91.17l44.98-339.11h127.46ZM1613.38,419.37c-4.46-38.41-8.94-85.88-13.43-142.43-8.98,64.94-14.62,112.41-16.92,142.43h30.36Z"/>
    <path class="cls-1" d="M1725.52,201.32h88.81c24.01,0,42.48,1.89,55.4,5.65,12.91,3.77,22.62,9.22,29.11,16.34,6.49,7.12,10.89,15.74,13.2,25.87,2.3,10.13,3.45,25.8,3.45,47.03v29.53c0,21.65-2.23,37.42-6.7,47.34-4.47,9.92-12.67,17.53-24.61,22.83-11.94,5.31-27.54,7.96-46.81,7.96h-23.67v136.57h-88.18V201.32ZM1813.7,259.34v86.3c2.51.14,4.68.21,6.49.21,8.09,0,13.72-1.99,16.86-5.97,3.14-3.98,4.71-12.25,4.71-24.82v-27.86c0-11.59-1.82-19.13-5.45-22.62-3.63-3.49-11.17-5.24-22.62-5.24Z"/>
  </g>
  <g>
    <path id="path5833" class="cls-3" d="M143.43,202.82c-16.28-106.4-68.76-125.95-71.31-125.64l-14.59,6.45c42.81,34.67,65.66,75.13,62.12,119.74l23.77-.55Z"/>
    <path class="cls-1" d="M152.83,388.45c-2.28,0-4.14-1.85-4.14-4.14v-45.5c0-2.28,1.85-4.14,4.14-4.14s4.14,1.85,4.14,4.14v45.5c0,2.28-1.85,4.14-4.14,4.14Z"/>
    <path class="cls-1" d="M274.56,540.84h-99.27c-3.62,0-6.57-4.3-6.57-9.58v-61.99c0-3.87,2.15-7,4.8-7s4.8,3.13,4.8,7v57.57h96.23c9.84,0,19.13-5.63,26.14-15.86,7.02-10.23,10.88-23.76,10.88-38.11v-203.92c0-14.35-3.86-27.88-10.88-38.11-7.02-10.23-16.3-15.86-26.14-15.86h-96.23v57.63c0,3.87-2.15,7-4.8,7s-4.8-3.13-4.8-7v-62.05c0-5.28,2.95-9.58,6.57-9.58h99.27c12.41,0,24.11,7.09,32.94,19.96,8.83,12.87,13.69,29.92,13.69,48.01v203.92c0,18.09-4.86,35.14-13.69,48.01-8.83,12.87-20.53,19.96-32.94,19.96Z"/>
    <path class="cls-1" d="M51.13,540.84h99.27c3.62,0,6.57-4.3,6.57-9.58v-61.99c0-3.87-2.15-7-4.8-7-2.65,0-4.8,3.13-4.8,7v57.57H51.13c-9.84,0-19.13-5.63-26.14-15.86-7.02-10.23-10.88-23.76-10.88-38.11v-203.92c0-14.35,3.86-27.88,10.88-38.11,7.02-10.23,16.3-15.86,26.14-15.86h96.23v57.63c0,3.87,2.15,7,4.8,7s4.8-3.13,4.8-7v-62.05c0-5.28-2.95-9.58-6.57-9.58H51.13c-12.41,0-24.11,7.09-32.94,19.96-8.83,12.87-13.69,29.92-13.69,48.01v203.92c0,18.09,4.86,35.14,13.69,48.01,8.83,12.87,20.53,19.96,32.94,19.96Z"/>
    <path class="cls-1" d="M172.86,388.45c-2.28,0-4.14-1.85-4.14-4.14v-45.5c0-2.28,1.85-4.14,4.14-4.14s4.14,1.85,4.14,4.14v45.5c0,2.28-1.85,4.14-4.14,4.14Z"/>
    <path id="path5837" class="cls-3" d="M148.83,129.58s15.11-8.8,23.23-12.05c23.12-9.26,54.97-3.06,71.85-20.96,21.71-23.03,19.45-91.7,19.45-91.7,0,0-19.17,18.06-30.79,24.1-23.79,12.37-60.41,3.12-77.25,23.58-16.57,20.13-21.61,52.05-6.48,77.03h0Z"/>
  </g>
</svg>